<svg xmlns="http://www.w3.org/2000/svg" viewBox="0 0 20 15">
  <rect width="20" height="15" fill="#fff"/>
  <!-- trigrams top-left -->
  <g fill="#000" stroke="none">
    <rect x="1.5" y="1.5" width="4" height="0.7"/>
    <rect x="1.5" y="2.5" width="4" height="0.7"/>
    <rect x="1.5" y="3.5" width="4" height="0.7"/>
  </g>
  <!-- trigrams top-right -->
  <g fill="#000">
    <rect x="14.5" y="1.5" width="4" height="0.7"/>
    <rect x="14.5" y="2.5" width="1.7" height="0.7"/>
    <rect x="16.8" y="2.5" width="1.7" height="0.7"/>
    <rect x="14.5" y="3.5" width="4" height="0.7"/>
  </g>
  <!-- trigrams bottom-left -->
  <g fill="#000">
    <rect x="1.5" y="10.8" width="1.7" height="0.7"/>
    <rect x="3.8" y="10.8" width="1.7" height="0.7"/>
    <rect x="1.5" y="11.8" width="4" height="0.7"/>
    <rect x="1.5" y="12.8" width="1.7" height="0.7"/>
    <rect x="3.8" y="12.8" width="1.7" height="0.7"/>
  </g>
  <!-- trigrams bottom-right -->
  <g fill="#000">
    <rect x="14.5" y="10.8" width="4" height="0.7"/>
    <rect x="14.5" y="11.8" width="1.7" height="0.7"/>
    <rect x="16.8" y="11.8" width="1.7" height="0.7"/>
    <rect x="14.5" y="12.8" width="4" height="0.7"/>
  </g>
  <!-- taeguk circle -->
  <circle cx="10" cy="7.5" r="3.5" fill="#CD2E3A"/>
  <path d="M10,4 a3.5,3.5 0 0,1 0,7 a1.75,1.75 0 0,1 0,-3.5 a1.75,1.75 0 0,0 0,-3.5 z" fill="#003478"/>
  <circle cx="10" cy="5.75" r="1.75" fill="#CD2E3A"/>
  <circle cx="10" cy="9.25" r="1.75" fill="#003478"/>
</svg>
