<svg xmlns="http://www.w3.org/2000/svg" viewBox="0 0 20 15">
  <rect width="20" height="15" fill="#B22234"/>
  <rect y="1.15" width="20" height="1.15" fill="#fff"/>
  <rect y="2.31" width="20" height="1.15" fill="#B22234"/>
  <rect y="3.46" width="20" height="1.15" fill="#fff"/>
  <rect y="4.62" width="20" height="1.15" fill="#B22234"/>
  <rect y="5.77" width="20" height="1.15" fill="#fff"/>
  <rect y="6.92" width="20" height="1.15" fill="#B22234"/>
  <rect y="8.08" width="20" height="1.15" fill="#fff"/>
  <rect y="9.23" width="20" height="1.15" fill="#B22234"/>
  <rect y="10.38" width="20" height="1.15" fill="#fff"/>
  <rect y="11.54" width="20" height="1.15" fill="#B22234"/>
  <rect y="12.69" width="20" height="1.15" fill="#fff"/>
  <rect width="8" height="8.08" fill="#3C3B6E"/>
  <g fill="#fff">
    <circle cx="1.3" cy="1.2" r="0.5"/>
    <circle cx="2.6" cy="1.2" r="0.5"/>
    <circle cx="3.9" cy="1.2" r="0.5"/>
    <circle cx="5.2" cy="1.2" r="0.5"/>
    <circle cx="6.5" cy="1.2" r="0.5"/>
    <circle cx="1.95" cy="2.4" r="0.5"/>
    <circle cx="3.25" cy="2.4" r="0.5"/>
    <circle cx="4.55" cy="2.4" r="0.5"/>
    <circle cx="5.85" cy="2.4" r="0.5"/>
    <circle cx="1.3" cy="3.6" r="0.5"/>
    <circle cx="2.6" cy="3.6" r="0.5"/>
    <circle cx="3.9" cy="3.6" r="0.5"/>
    <circle cx="5.2" cy="3.6" r="0.5"/>
    <circle cx="6.5" cy="3.6" r="0.5"/>
    <circle cx="1.95" cy="4.8" r="0.5"/>
    <circle cx="3.25" cy="4.8" r="0.5"/>
    <circle cx="4.55" cy="4.8" r="0.5"/>
    <circle cx="5.85" cy="4.8" r="0.5"/>
    <circle cx="1.3" cy="6.0" r="0.5"/>
    <circle cx="2.6" cy="6.0" r="0.5"/>
    <circle cx="3.9" cy="6.0" r="0.5"/>
    <circle cx="5.2" cy="6.0" r="0.5"/>
    <circle cx="6.5" cy="6.0" r="0.5"/>
    <circle cx="1.95" cy="7.2" r="0.5"/>
    <circle cx="3.25" cy="7.2" r="0.5"/>
    <circle cx="4.55" cy="7.2" r="0.5"/>
    <circle cx="5.85" cy="7.2" r="0.5"/>
  </g>
</svg>
